<?xml version="1.0" standalone="no"?>
<!DOCTYPE svg PUBLIC "-//W3C//DTD SVG 20010904//EN"
 "http://www.w3.org/TR/2001/REC-SVG-20010904/DTD/svg10.dtd">
<svg version="1.0" xmlns="http://www.w3.org/2000/svg"
 width="300.000000pt" height="275.000000pt" viewBox="0 0 300.000000 275.000000"
 preserveAspectRatio="xMidYMid meet">
<metadata>
Created by potrace 1.10, written by Peter Selinger 2001-2011
</metadata>
<g transform="translate(0.000000,275.000000) scale(0.100000,-0.100000)"
   fill="currentColor" stroke="none">
<path d="M1030 2276 c-148 -32 -257 -92 -355 -197 -163 -175 -209 -421 -122
-654 31 -84 64 -133 147 -216 114 -116 220 -166 405 -195 l40 -6 -278 -272
c-237 -230 -278 -275 -275 -296 2 -20 10 -26 33 -28 27 -2 58 25 340 308 170
170 312 310 315 310 3 0 5 -46 5 -103 1 -83 6 -118 28 -189 15 -47 34 -92 42
-98 8 -7 15 -17 15 -22 0 -6 24 -32 53 -60 125 -119 244 -168 409 -168 118 0
177 13 274 61 86 42 205 159 251 244 126 238 86 520 -102 723 -30 32 -72 71
-93 86 -22 15 -45 39 -51 53 -30 66 -87 116 -155 138 -17 5 23 49 228 254 205
205 247 252 244 272 -2 18 -10 25 -32 27 -26 3 -58 -25 -333 -300 -276 -276
-303 -300 -303 -273 0 66 -32 191 -67 264 -52 105 -168 222 -273 274 -132 65
-271 88 -390 63z m251 -97 c184 -59 323 -197 373 -368 22 -76 21 -128 -3 -141
-12 -6 -22 -6 -25 -1 -13 20 -101 61 -157 73 -145 30 -305 -56 -377 -201 -24
-49 -27 -68 -27 -151 0 -83 4 -103 28 -155 15 -33 42 -78 59 -99 l32 -39 -81
6 c-160 12 -318 100 -404 224 -97 139 -129 294 -94 447 19 81 29 104 78 184
66 106 183 191 313 227 78 21 210 19 285 -6z m194 -620 c26 -7 63 -28 89 -50
24 -22 48 -39 53 -39 5 0 22 14 39 31 41 43 76 59 129 59 91 0 152 -48 180
-142 16 -55 9 -111 -21 -177 -14 -30 -184 -202 -287 -291 -37 -32 -40 -33 -63
-19 -49 30 -275 243 -304 287 -43 64 -56 138 -36 205 22 73 56 108 123 133 47
16 45 16 98 3z m786 -282 c61 -94 83 -174 83 -297 -1 -88 -5 -116 -27 -173
-69 -177 -208 -295 -395 -334 -98 -20 -193 -7 -301 43 -86 39 -194 142 -232
220 -23 48 -40 194 -23 194 5 0 62 -48 127 -106 94 -84 123 -105 141 -100 31
8 418 392 454 451 35 57 62 143 62 194 l0 35 36 -35 c20 -18 54 -60 75 -92z"/>
</g>
</svg>
